<svg width="365" height="530" viewBox="0 0 365 530" fill="none" xmlns="http://www.w3.org/2000/svg">
<rect width="363" height="529.847" fill="#EF7F1A"/>
<g clip-path="url(#clip0)">
<path opacity="0.48" d="M395.924 26.8254L366.014 8.35714L395.924 20.8413L395.924 19.9127L361.325 5.36508L360.818 6.0873L395.924 27.8571L395.924 26.8254Z" fill="#F5F5F5"/>
<path opacity="0.38" d="M226.984 -25.1746L225.97 -25.1746L242.066 36.1111L242.193 36.7302L323.05 -11.5555L322.417 -12.2778L242.953 35.2857L226.984 -25.1746Z" fill="#F5F5F5"/>
<path opacity="0.31" d="M225.97 -25.1746L241.812 35.2857L208.861 21.873L215.451 -25.1746L214.437 -25.1746L207.847 22.3889L243.333 36.7302L226.984 -25.1746L225.97 -25.1746Z" fill="#F5F5F5"/>
<path opacity="0.33" d="M41.8229 74.2857L108.866 124.325L82.3784 143.619L81.7448 143L107.345 124.325L44.7378 77.5873L79.9705 142.69L79.0833 143.103L41.8229 74.2857Z" fill="#F5F5F5"/>
<path opacity="0.56" d="M81.618 142.071C82.125 143 81.618 144.135 80.4774 144.548C79.3368 144.96 77.9427 144.548 77.4357 143.619C76.9288 142.69 77.4357 141.556 78.5764 141.143C79.717 140.73 81.1111 141.143 81.618 142.071Z" fill="#F5F5F5"/>
<path opacity="0.29" d="M80.6042 141.865C79.717 142.587 79.5903 143.722 80.4774 144.548C81.3646 145.27 82.7587 145.373 83.7726 144.651C84.6597 143.929 84.7865 142.794 83.8993 141.968C83.0122 141.246 81.4913 141.246 80.6042 141.865Z" fill="#F5F5F5"/>
<path opacity="0.23" d="M43.4705 75.2143L43.724 75.7302L79.9705 142.69L79.0833 143.103L43.0903 76.5556L2.91489 103.175L78.8299 143.206L78.3229 143.929L1.14059 103.278L1.64753 102.968L43.4705 75.2143Z" fill="#F5F5F5"/>
<path opacity="0.59" d="M79.717 141.968C80.7308 142.484 81.111 143.722 80.3506 144.548C79.717 145.373 78.1961 145.683 77.1822 145.063C76.1684 144.444 75.7882 143.31 76.5486 142.484C77.1822 141.659 78.7031 141.349 79.717 141.968Z" fill="#F5F5F5"/>
<path opacity="0.06" d="M77.4357 143.619C77.9427 144.548 79.3368 144.96 80.4774 144.548C81.618 144.135 82.125 143 81.618 142.071C81.1111 141.143 79.717 140.73 78.5764 141.143C77.4357 141.556 76.9288 142.587 77.4357 143.619Z" fill="#F5F5F5"/>
<path opacity="0.54" d="M22.4323 77.1746L44.8646 75.3174L0.126707 105.032L18.7569 79.1349L19.6441 79.5476L3.80205 101.524L41.5694 76.4524L22.4323 78L22.4323 77.1746Z" fill="#F5F5F5"/>
<path opacity="0.69" d="M17.1093 78.5159C17.743 77.5873 19.1371 77.2778 20.2778 77.7936C21.4184 78.3095 21.7986 79.4444 21.165 80.373C20.5313 81.3016 19.1372 81.6111 17.9965 81.0952C16.8559 80.5794 16.4757 79.3413 17.1093 78.5159Z" fill="#F5F5F5"/>
<path opacity="0.41" d="M22.3055 75.7301C21.0382 75.8333 20.151 76.7619 20.2778 77.7936C20.4045 78.8254 21.5451 79.5476 22.8125 79.4444C24.0798 79.3413 24.967 78.4127 24.8403 77.3809C24.7135 76.4524 23.5729 75.627 22.3055 75.7301Z" fill="#F5F5F5"/>
<path opacity="0.5" d="M325.205 -13.9286L310.123 51.5873L309.109 51.4841L323.811 -11.9682L243.714 35.9048L307.208 52.3095L306.955 53.1349L241.432 36.2143L325.205 -13.9286Z" fill="#F5F5F5"/>
<path opacity="0.65" d="M311.898 51.7937C311.644 52.8254 310.503 53.4445 309.236 53.2381C307.969 53.0318 307.208 52.1032 307.462 51.0714C307.715 50.0397 308.856 49.4207 310.123 49.627C311.264 49.8333 312.151 50.7619 311.898 51.7937Z" fill="#F5F5F5"/>
<path opacity="0.13" d="M306.321 54.4762C307.588 54.7857 308.856 54.2699 309.236 53.2381C309.616 52.2064 308.983 51.1746 307.715 50.8651C306.448 50.5556 305.181 51.0714 304.8 52.1032C304.42 53.1349 305.054 54.1667 306.321 54.4762Z" fill="#F5F5F5"/>
<path opacity="0.26" d="M239.024 34.6667L310.757 53.2381L290.733 59.7381L290.352 59.0159L307.715 53.3413L246.121 37.3492L286.931 58.7064L286.424 59.4286L239.024 34.6667Z" fill="#F5F5F5"/>
<path opacity="0.6" d="M287.818 57.4683C288.832 57.9841 289.212 59.2222 288.451 60.0476C287.818 60.873 286.297 61.1826 285.283 60.5635C284.269 60.0476 283.889 58.8095 284.649 57.9841C285.41 57.1587 286.804 56.8492 287.818 57.4683Z" fill="#F5F5F5"/>
<path opacity="0.67" d="M289.845 57.5714C288.705 57.9841 288.071 59.0159 288.578 60.0476C289.085 60.9762 290.352 61.4921 291.62 61.0794C292.76 60.6667 293.394 59.6349 292.887 58.6032C292.38 57.6746 290.986 57.1587 289.845 57.5714Z" fill="#F5F5F5"/>
<path opacity="0.34" d="M208.988 21.3571L186.302 119.786L185.288 119.683L207.72 22.9048L96.1927 70.1587L183.894 120.095L183.26 120.817L94.1649 70.0555L208.988 21.3571Z" fill="#F5F5F5"/>
<path opacity="0.46" d="M184.781 118.857C185.795 119.476 186.049 120.611 185.288 121.436C184.528 122.262 183.134 122.468 182.12 121.849C181.106 121.23 180.852 120.095 181.613 119.27C182.373 118.444 183.767 118.238 184.781 118.857Z" fill="#F5F5F5"/>
<path opacity="0.2" d="M183.514 119.27C183.26 120.302 184.148 121.23 185.288 121.437C186.556 121.643 187.696 120.921 187.95 119.992C188.203 118.96 187.316 118.032 186.175 117.825C185.035 117.619 183.767 118.238 183.514 119.27Z" fill="#F5F5F5"/>
<path opacity="0.61" d="M113.302 -15.373L209.495 22.0794L208.608 22.4921L94.5451 70.8809L110.26 -14.1349L111.274 -14.0318L95.8125 69.3333L207.213 22.0794L112.795 -14.6508L113.302 -15.373Z" fill="#F5F5F5"/>
<path opacity="0.02" d="M94.4184 69.2302L95.4323 69.746L186.936 121.849L110.387 124.738L110.26 123.913L183.894 121.127L95.9392 71.0873L108.233 122.571L107.219 122.675L94.4184 69.2302Z" fill="#F5F5F5"/>
<path opacity="0.1" d="M110.007 122.159C110.26 123.19 109.373 124.119 108.233 124.325C106.965 124.532 105.825 123.81 105.571 122.881C105.318 121.849 106.205 120.921 107.345 120.714C108.486 120.508 109.753 121.127 110.007 122.159Z" fill="#F5F5F5"/>
<path opacity="0.19" d="M110.387 122.365C109.12 122.365 108.106 123.294 108.233 124.325C108.233 125.357 109.373 126.183 110.641 126.079C111.908 126.079 112.922 125.151 112.795 124.119C112.668 123.191 111.655 122.365 110.387 122.365Z" fill="#F5F5F5"/>
<path opacity="0.43" d="M42.0764 75.627L95.5589 69.6429L108.233 122.571L107.219 122.675L94.7985 70.5714L44.3576 76.1429L106.838 122.881L106.205 123.5L42.0764 75.627Z" fill="#F5F5F5"/>
<path opacity="0.35" d="M107.979 121.746C108.866 122.468 108.993 123.603 108.106 124.429C107.219 125.151 105.825 125.254 104.811 124.532C103.924 123.81 103.797 122.675 104.684 121.849C105.571 121.024 107.092 121.024 107.979 121.746Z" fill="#F5F5F5"/>
<path opacity="0.52" d="M105.444 122.881C105.698 123.913 106.839 124.532 108.106 124.325C109.373 124.119 110.134 123.19 109.88 122.159C109.627 121.127 108.486 120.508 107.219 120.714C105.951 120.921 105.191 121.849 105.444 122.881Z" fill="#F5F5F5"/>
<path opacity="0.3" d="M324.191 -13.8254L347.637 4.74605L310.884 52L309.997 51.5873L309.109 51.4841L324.191 -13.8254ZM346.243 4.84922L324.825 -12.1746L310.123 51.1746L346.243 4.84922Z" fill="#F5F5F5"/>
<path opacity="0.28" d="M312.404 52.7222C311.771 53.5476 310.25 53.8572 309.236 53.3413C308.222 52.8254 307.842 51.5873 308.476 50.7619C309.109 49.9365 310.63 49.627 311.644 50.1429C312.785 50.6587 313.038 51.7937 312.404 52.7222Z" fill="#F5F5F5"/>
<path opacity="0.68" d="M307.335 51.0714C307.082 52.1032 307.969 53.0318 309.109 53.2381C310.377 53.4445 311.517 52.7222 311.771 51.7937C312.024 50.7619 311.137 49.8333 309.997 49.627C308.856 49.4207 307.589 50.0397 307.335 51.0714Z" fill="#F5F5F5"/>
<path opacity="0.03" d="M241.939 33.119L256.767 70.6746L245.741 79.2381L244.981 78.619L255.5 70.4683L243.207 38.8968L244.22 78.4127L243.207 78.4127L241.939 33.119Z" fill="#F5F5F5"/>
<path opacity="0.14" d="M245.995 78.3095C245.995 79.3413 244.981 80.1667 243.713 80.2699C242.446 80.2699 241.432 79.4445 241.306 78.4127C241.306 77.381 242.319 76.5556 243.587 76.4524C244.854 76.4524 245.995 77.2778 245.995 78.3095Z" fill="#F5F5F5"/>
<path opacity="0.63" d="M243.84 77.4841C242.953 78.2063 242.826 79.3413 243.714 80.1667C244.601 80.8889 245.995 80.9921 247.009 80.2698C247.896 79.5476 248.023 78.4127 247.135 77.5873C246.248 76.8651 244.727 76.8651 243.84 77.4841Z" fill="#F5F5F5"/>
<path opacity="0.06" d="M207.214 21.1508L243.08 35.6984L243.08 35.9048L244.22 78.4127L243.207 78.4127L242.319 78.7222L207.214 21.1508ZM242.066 36.3175L209.495 23.1111L243.207 78.4127L242.066 36.3175Z" fill="#F5F5F5"/>
<path opacity="0.63" d="M245.995 78.3095C245.995 79.3413 244.981 80.1667 243.713 80.2699C242.446 80.2699 241.432 79.4445 241.306 78.4127C241.306 77.381 242.319 76.5556 243.587 76.4524C244.854 76.4524 245.995 77.2778 245.995 78.3095Z" fill="#F5F5F5"/>
<path opacity="0.24" d="M240.672 79.3413C241.179 80.2699 242.573 80.6825 243.714 80.1667C244.854 79.754 245.361 78.6191 244.727 77.6905C244.22 76.7619 242.826 76.3492 241.686 76.8651C240.545 77.381 240.038 78.4127 240.672 79.3413Z" fill="#F5F5F5"/>
<path opacity="0.13" d="M208.101 20.8413L243.207 78.4127L242.319 78.7222L208.608 23.4206L186.175 120.405L241.812 80.9921L242.446 81.7143L184.654 122.571L208.101 20.8413Z" fill="#F5F5F5"/>
<path opacity="0.44" d="M244.727 77.6905C245.234 78.6191 244.854 79.754 243.714 80.1667C242.573 80.5794 241.179 80.2698 240.672 79.3413C240.165 78.4127 240.545 77.2778 241.686 76.8651C242.826 76.4524 244.22 76.7619 244.727 77.6905Z" fill="#F5F5F5"/>
<path opacity="0.17" d="M243.46 82.8492C244.474 82.127 244.474 80.9921 243.714 80.1667C242.826 79.3413 241.432 79.3413 240.418 79.9603C239.404 80.6825 239.404 81.8175 240.165 82.6429C241.052 83.4683 242.573 83.4683 243.46 82.8492Z" fill="#F5F5F5"/>
<path opacity="0.43" d="M240.672 34.5635L286.931 58.7064L286.424 59.4286L244.474 37.4524L266.906 63.8651L286.297 60.0476L286.55 60.873L266.526 64.7937L240.672 34.5635Z" fill="#F5F5F5"/>
<path opacity="0.47" d="M287.818 57.4683C288.832 57.9841 289.212 59.2222 288.451 60.0476C287.818 60.873 286.297 61.1826 285.283 60.5635C284.269 60.0476 283.889 58.8095 284.649 57.9841C285.41 57.1587 286.804 56.8492 287.818 57.4683Z" fill="#F5F5F5"/>
<path opacity="0.05" d="M286.804 62.3175C288.071 62.1111 288.832 61.0794 288.451 60.0476C288.198 59.0159 286.931 58.3968 285.663 58.7064C284.396 58.9127 283.635 59.9444 284.016 60.9762C284.396 61.9048 285.663 62.5238 286.804 62.3175Z" fill="#F5F5F5"/>
<path opacity="0.06" d="M241.052 33.5318L265.892 62.627L265.132 63.1429L244.094 38.4841L256.387 69.9524L264.625 65L265.259 65.7222L255.88 71.2937L241.052 33.5318Z" fill="#F5F5F5"/>
<path opacity="0.39" d="M267.286 61.6984C268.047 62.5238 267.793 63.7619 266.653 64.2778C265.639 64.8968 264.118 64.6905 263.484 63.7619C262.724 62.9365 262.977 61.6984 264.118 61.1826C265.132 60.6667 266.653 60.873 267.286 61.6984Z" fill="#F5F5F5"/>
<path opacity="0.69" d="M266.273 66.9603C267.286 66.3413 267.54 65.2063 266.779 64.3809C266.019 63.5556 264.625 63.3492 263.611 63.9682C262.597 64.5873 262.344 65.7222 263.104 66.5476C263.738 67.373 265.132 67.5794 266.273 66.9603Z" fill="#F5F5F5"/>
<path opacity="0.49" d="M161.969 -25.1746L206.58 20.9445L111.781 -15.9921L119.259 -25.1746L117.991 -25.1746L110.26 -15.6825L210.128 23.2143L163.363 -25.1746L161.969 -25.1746Z" fill="#F5F5F5"/>
<path opacity="0.66" d="M58.4254 64.8968L58.6789 64.8968L93.0243 69.4365L92.8976 70.0556L93.0243 70.7778L41.5695 76.4524L58.4254 64.8968ZM91.6302 70.0556L58.6789 65.7222L44.8646 75.2143L91.6302 70.0556Z" fill="#F5F5F5"/>
<path opacity="0.11" d="M92.5173 68.5079C93.7847 68.4048 94.9253 69.127 95.052 70.1587C95.1788 71.1905 94.2916 72.119 93.0243 72.2222C91.7569 72.3254 90.6163 71.6032 90.4896 70.5714C90.3628 69.5397 91.25 68.6111 92.5173 68.5079Z" fill="#F5F5F5"/>
<path opacity="0.66" d="M92.5174 71.7063C93.7847 71.9127 94.9253 71.1905 95.1788 70.1587C95.4323 69.127 94.5451 68.1984 93.2778 67.9921C92.0104 67.7857 90.8698 68.5079 90.6163 69.5397C90.3628 70.5714 91.25 71.5 92.5174 71.7063Z" fill="#F5F5F5"/>
<path opacity="0.22" d="M108.993 -15.0635L109.627 -14.4445L90.3628 -3.09526L95.3055 66.1349L110.26 -14.1349L111.274 -14.0318L94.9253 74.0793L89.3489 -3.50795L108.993 -15.0635Z" fill="#F5F5F5"/>
<path opacity="0.36" d="M90.2361 -4.43652L90.3628 -3.3016L95.6857 70.0555L94.6718 70.2619L78.5764 10.5238L79.5902 10.3174L94.2916 64.8968L89.3489 -2.16668L80.3507 7.53173L79.5902 7.01586L90.2361 -4.43652Z" fill="#F5F5F5"/>
<path opacity="0.13" d="M76.9288 10.9365C76.6753 9.90477 77.4357 8.9762 78.7031 8.66667C79.9705 8.46032 81.1111 9.07937 81.4913 10.1111C81.7448 11.1429 80.9843 12.0714 79.717 12.381C78.3229 12.5873 77.1823 11.9683 76.9288 10.9365Z" fill="#F5F5F5"/>
<path opacity="0.31" d="M78.1961 6.08731C77.4357 6.9127 77.5625 8.04762 78.5764 8.66667C79.5902 9.28572 80.9843 9.18255 81.7447 8.35715C82.5052 7.53175 82.3784 6.39683 81.3645 5.77778C80.3506 5.05556 78.9566 5.26191 78.1961 6.08731Z" fill="#F5F5F5"/>
<path opacity="0.28" d="M367.535 -25.1746L360.564 5.67462L360.564 5.98414L395.924 20.8413L395.924 19.9127L361.705 5.57144L368.549 -25.1746L367.535 -25.1746Z" fill="#F5F5F5"/>
<path opacity="0.53" d="M-29.4028 128.865L0.760437 104.825L0.126755 104.206L-29.4028 127.627L-29.4028 128.865Z" fill="#F5F5F5"/>
<path opacity="0.53" d="M-0.253506 101.421C1.01386 101.421 2.02777 102.246 2.02777 103.278C2.02777 104.31 1.01386 105.135 -0.253507 105.135C-1.52087 105.135 -2.53475 104.31 -2.53475 103.278C-2.66148 102.246 -1.64761 101.421 -0.253506 101.421Z" fill="#F5F5F5"/>
<path opacity="0.15" d="M1.90104 105.96C2.7882 105.238 2.7882 104 1.90104 103.278C1.01388 102.556 -0.506979 102.556 -1.39414 103.278C-2.2813 104 -2.2813 105.238 -1.39414 105.96C-0.380242 106.579 1.01388 106.683 1.90104 105.96Z" fill="#F5F5F5"/>
<path opacity="0.65" d="M-29.4028 128.865L0.380216 105.135L-29.4028 158.579L-29.4028 160.54L1.52087 105.032L0.760448 104.722L0.126766 104.206L-29.4028 127.627L-29.4028 128.865Z" fill="#F5F5F5"/>
<path opacity="0.55" d="M-1.01383 104.206C-0.506889 103.278 0.887193 102.865 2.02781 103.278C3.16843 103.69 3.67536 104.825 3.16842 105.754C2.66148 106.683 1.2674 107.095 0.12678 106.683C-1.01384 106.27 -1.64751 105.135 -1.01383 104.206Z" fill="#F5F5F5"/>
<path opacity="0.14" d="M1.90104 105.96C2.7882 105.238 2.7882 104 1.90104 103.278C1.01388 102.556 -0.506979 102.556 -1.39414 103.278C-2.2813 104 -2.2813 105.238 -1.39414 105.96C-0.380242 106.579 1.01388 106.683 1.90104 105.96Z" fill="#F5F5F5"/>
<path opacity="0.3" d="M362.592 7.22223L395.924 27.8571L395.924 26.7222L359.55 4.23016L386.672 45.7063L387.686 45.2937L362.592 7.22223Z" fill="#F5F5F5"/>
<path opacity="0.48" d="M345.736 4.33334L361.325 5.36509L361.451 5.57144L387.559 45.2937L386.925 45.6032L386.418 45.9127L345.736 4.33334ZM360.818 6.19049L348.144 5.36509L385.151 43.2302L360.818 6.19049Z" fill="#F5F5F5"/>
<path opacity="0.04" d="M346.877 4.12698L387.306 45.3968L386.418 45.9127L347.003 5.46825L310.123 52.8254L386.038 46.8413L386.038 47.6667L308.222 53.754L346.877 4.12698Z" fill="#F5F5F5"/>
<path opacity="0.19" d="M1.1406 102.246L78.8298 143.206L78.3229 143.929L2.9149 104.206L25.8541 164.563L78.1962 144.857L78.7031 145.683L25.2205 165.802L25.0937 165.286L1.1406 102.246Z" fill="#F5F5F5"/>
<path opacity="0.53" d="M79.717 141.968C80.7308 142.484 81.111 143.722 80.3506 144.548C79.717 145.373 78.1961 145.683 77.1822 145.063C76.1684 144.444 75.7882 143.31 76.5486 142.484C77.1822 141.659 78.7031 141.349 79.717 141.968Z" fill="#F5F5F5"/>
<path opacity="0.65" d="M79.3368 147.024C80.4774 146.611 80.9843 145.476 80.4774 144.548C79.9704 143.619 78.5763 143.206 77.4357 143.619C76.2951 144.032 75.7881 145.167 76.2951 146.095C76.802 147.024 78.1961 147.437 79.3368 147.024Z" fill="#F5F5F5"/>
<path opacity="0.35" d="M-29.4028 176.532L23.5729 166.008L23.3194 165.183L-29.4028 175.706L-29.4028 176.532Z" fill="#F5F5F5"/>
<path opacity="0.35" d="M-29.4028 160.54L1.90101 104.413L24.46 163.635L25.4739 163.325L2.02775 102.143L-29.4028 158.579L-29.4028 160.54Z" fill="#F5F5F5"/>
<path opacity="0.16" d="M27.1215 162.81C27.5017 163.841 26.868 164.873 25.6007 165.183C24.3333 165.492 23.066 164.976 22.6858 163.944C22.3055 162.913 22.9392 161.881 24.2066 161.571C25.4739 161.262 26.7413 161.881 27.1215 162.81Z" fill="#F5F5F5"/>
<path opacity="0.17" d="M23.9531 167.452C25.2205 167.246 25.9809 166.214 25.6007 165.183C25.3472 164.151 24.0799 163.532 22.8125 163.841C21.5452 164.048 20.7848 165.079 21.165 166.111C21.4185 167.04 22.6858 167.659 23.9531 167.452Z" fill="#F5F5F5"/>
<path opacity="0.35" d="M-29.4028 94.6111L-0.253523 103.071L0.126709 102.246L-29.4028 93.6826L-29.4028 94.6111Z" fill="#F5F5F5"/>
<path opacity="0.35" d="M-29.4029 72.6349L0.253467 102.143L1.01385 101.627L-29.4029 71.3968L-29.4029 72.6349Z" fill="#F5F5F5"/>
<path opacity="0.58" d="M2.28123 100.595C3.04165 101.421 2.91493 102.556 1.90104 103.278C0.887141 103.897 -0.506973 103.794 -1.39413 102.968C-2.15455 102.143 -2.02779 101.008 -1.0139 100.286C-1.89772e-06 99.6666 1.52081 99.873 2.28123 100.595Z" fill="#F5F5F5"/>
<path opacity="0.1" d="M-1.01387 104.413C0.126758 104.722 1.52085 104.206 1.90106 103.278C2.28127 102.349 1.64758 101.214 0.506947 100.905C-0.633686 100.595 -2.02778 101.111 -2.40799 102.04C-2.7882 102.968 -2.15451 104 -1.01387 104.413Z" fill="#F5F5F5"/>
<path opacity="0.1" d="M-29.4028 94.6111L-1.01391 102.865L-29.4028 102.865L-29.4028 103.69L-0.253523 103.69L-0.253523 102.968L0.126709 102.246L-29.4028 93.6826L-29.4028 94.6111Z" fill="#F5F5F5"/>
<path opacity="0.47" d="M-0.253506 101.421C1.01386 101.421 2.02777 102.246 2.02777 103.278C2.02777 104.31 1.01386 105.135 -0.253507 105.135C-1.52087 105.135 -2.53475 104.31 -2.53475 103.278C-2.66148 102.246 -1.64761 101.421 -0.253506 101.421Z" fill="#F5F5F5"/>
<path opacity="0.05" d="M-1.01387 104.413C0.126758 104.722 1.52085 104.206 1.90106 103.278C2.28127 102.349 1.64758 101.214 0.506947 100.905C-0.633686 100.595 -2.02778 101.111 -2.40799 102.04C-2.7882 102.968 -2.15451 104 -1.01387 104.413Z" fill="#F5F5F5"/>
<path opacity="0.04" d="M-11.7865 62.1111L18.6302 76.5555L18.1232 77.2778L-10.1389 63.7619L2.15449 102.143L18.7569 79.1349L19.644 79.5476L1.77426 104.309L-11.7865 62.1111Z" fill="#F5F5F5"/>
<path opacity="0.46" d="M17.1093 78.5159C17.743 77.5873 19.1371 77.2778 20.2778 77.7936C21.4184 78.3095 21.7986 79.4444 21.165 80.373C20.5313 81.3016 19.1372 81.6111 17.9965 81.0952C16.8559 80.5794 16.4757 79.3413 17.1093 78.5159Z" fill="#F5F5F5"/>
<path opacity="0.6" d="M17.1094 78.5159C18.25 79.0317 19.6441 78.7222 20.2777 77.7936C20.9114 76.8651 20.5312 75.7301 19.3906 75.2143C18.25 74.6984 16.8559 75.0079 16.2222 75.9365C15.5885 76.8651 15.9688 78 17.1094 78.5159Z" fill="#F5F5F5"/>
<path opacity="0.19" d="M-29.4028 63.6587L-11.4063 63.3492L0.887127 101.524L-29.4028 71.3968L-29.4028 72.6349L0.253447 102.143L1.01383 101.627L1.901 101.421L-10.6459 62.5238L-29.4028 62.8333L-29.4028 63.6587Z" fill="#F5F5F5"/>
<path opacity="0.69" d="M2.28123 100.595C3.04165 101.421 2.91493 102.556 1.90104 103.278C0.887141 103.897 -0.506973 103.794 -1.39413 102.968C-2.15455 102.143 -2.02779 101.008 -1.0139 100.286C-1.89772e-06 99.6666 1.52081 99.873 2.28123 100.595Z" fill="#F5F5F5"/>
<path opacity="0.26" d="M-0.887194 101.936C-0.506985 102.968 0.633657 103.587 1.90102 103.278C3.16838 102.968 3.92879 102.04 3.54858 101.008C3.16837 99.9762 2.02776 99.3571 0.760402 99.6666C-0.380225 99.873 -1.14067 100.905 -0.887194 101.936Z" fill="#F5F5F5"/>
<path opacity="0.49" d="M336.738 -25.1746L346.496 5.15874L358.917 5.98414L358.917 5.15875L347.384 4.43652L337.752 -25.1746L336.738 -25.1746Z" fill="#F5F5F5"/>
<path opacity="0.49" d="M340.16 -25.1746L359.55 4.43652L360.437 4.02382L341.3 -25.1746L340.16 -25.1746Z" fill="#F5F5F5"/>
<path opacity="0.52" d="M358.917 3.71429C360.184 3.81747 361.071 4.74604 361.071 5.77778C360.944 6.80953 359.804 7.53175 358.536 7.53175C357.269 7.42858 356.382 6.50001 356.382 5.46826C356.635 4.43651 357.649 3.61112 358.917 3.71429Z" fill="#F5F5F5"/>
<path opacity="0.48" d="M357.903 4.95239C358.536 5.88097 359.931 6.29366 361.071 5.77779C362.212 5.26192 362.592 4.127 361.958 3.19843C361.451 2.26986 360.057 1.96033 358.917 2.4762C357.776 2.99208 357.396 4.127 357.903 4.95239Z" fill="#F5F5F5"/>
<path opacity="0.22" d="M330.148 -25.1746L329.007 -25.1746L324.064 -13.1032L323.937 -12.7936L344.976 3.81748L345.736 3.3016L325.078 -13.1032L330.148 -25.1746Z" fill="#F5F5F5"/>
<path opacity="0.22" d="M336.738 -25.1746L345.863 3.19843L346.877 2.99208L337.752 -25.1746L336.738 -25.1746Z" fill="#F5F5F5"/>
<path opacity="0.24" d="M346.877 2.16667C347.764 2.88889 347.764 4.02381 346.877 4.84921C345.99 5.57143 344.595 5.57143 343.582 4.84921C342.694 4.12698 342.694 2.99206 343.582 2.16667C344.469 1.44444 345.99 1.44444 346.877 2.16667Z" fill="#F5F5F5"/>
<path opacity="0.29" d="M344.089 3.50794C344.469 4.53968 345.609 5.15873 346.877 4.84921C348.144 4.53968 348.904 3.61111 348.524 2.57936C348.144 1.54762 347.003 0.928571 345.736 1.23809C344.469 1.44444 343.835 2.47619 344.089 3.50794Z" fill="#F5F5F5"/>
<path opacity="0.06" d="M77.0555 10.0079L77.9427 10.4206L54.4965 41.6825L94.2916 69.0238L78.5763 10.5238L79.5902 10.3175L95.9391 71.1905L53.2292 41.8889L77.0555 10.0079Z" fill="#F5F5F5"/>
<path opacity="0.32" d="M76.9288 10.9365C76.6753 9.90477 77.4357 8.9762 78.7031 8.66667C79.9705 8.46032 81.1111 9.07937 81.4913 10.1111C81.7448 11.1429 80.9843 12.0714 79.717 12.381C78.3229 12.5873 77.1823 11.9683 76.9288 10.9365Z" fill="#F5F5F5"/>
<path opacity="0.42" d="M79.3367 11.246C79.9704 10.3175 79.5902 9.18254 78.5763 8.66666C77.4357 8.15079 76.0416 8.46031 75.4079 9.28571C74.7743 10.2143 75.1545 11.3492 76.1684 11.8651C77.309 12.3809 78.7031 12.1746 79.3367 11.246Z" fill="#F5F5F5"/>
<path opacity="0.62" d="M59.566 7.01587L79.4635 8.35714L79.0833 8.87301L53.2292 43.5397L56.6511 8.97619L57.6649 9.07936L54.4965 40.1349L77.8159 9.07936L59.566 7.84126L59.566 7.01587Z" fill="#F5F5F5"/>
<path opacity="0.47" d="M54.8767 8.9762C55.0035 7.94445 56.1441 7.22223 57.4114 7.22223C58.6788 7.3254 59.5659 8.25397 59.5659 9.28572C59.4392 10.3175 58.2986 11.0397 57.0312 11.0397C55.7639 10.9365 54.75 10.0079 54.8767 8.9762Z" fill="#F5F5F5"/>
<path opacity="0.17" d="M59.8194 5.57144C58.552 5.46826 57.4114 6.29366 57.2847 7.32541C57.1579 8.35715 58.1718 9.28573 59.4392 9.3889C60.7065 9.49208 61.8472 8.66668 61.9739 7.63493C62.1006 6.50001 61.0868 5.57144 59.8194 5.57144Z" fill="#F5F5F5"/>
<path opacity="0.4" d="M53.1024 40.754L93.7847 68.6111L93.151 69.3333L54.6232 42.8175L59.059 65L93.0242 69.4365L92.8975 70.2619L58.1718 65.7222L58.0451 65.4127L53.1024 40.754Z" fill="#F5F5F5"/>
<path opacity="0.21" d="M93.2778 67.9921C94.5451 68.1984 95.4323 69.127 95.1788 70.1587C94.9253 71.1905 93.7847 71.9127 92.5174 71.7063C91.25 71.5 90.3628 70.5714 90.6163 69.5397C90.7431 68.5079 92.0104 67.7857 93.2778 67.9921Z" fill="#F5F5F5"/>
<path opacity="0.42" d="M91.8836 70.3651C92.8975 70.9841 94.2916 70.8809 95.1788 70.1587C95.9392 69.3333 95.8125 68.1984 94.9253 67.4762C93.9114 66.8571 92.5173 66.9603 91.6302 67.6825C90.8698 68.5079 90.8697 69.6428 91.8836 70.3651Z" fill="#F5F5F5"/>
<path opacity="0.49" d="M-29.4028 14.9603L56.7778 7.73808L53.3559 41.2698L-29.4028 16.0952L-29.4028 16.9206L53.7361 42.1984L54.3698 42.4048L57.9184 7.32538L57.9184 6.80951L-29.4028 14.1349L-29.4028 14.9603Z" fill="#F5F5F5"/>
<path opacity="0.33" d="M53.9895 39.7222L58.6788 63.5556L57.7916 63.6587L53.7361 43.8492L44.1041 74.6984L56.651 66.1349L57.2847 66.754L42.3298 77.0714L53.9895 39.7222Z" fill="#F5F5F5"/>
<path opacity="0.02" d="M55.3836 65.1032C56.3975 64.4841 57.7916 64.4841 58.6788 65.3095C59.5659 66.1349 59.4392 67.2699 58.4253 67.9921C57.4114 68.6111 56.0173 68.6111 55.1302 67.7857C54.243 66.9603 54.3697 65.8254 55.3836 65.1032Z" fill="#F5F5F5"/>
<path opacity="0.08" d="M55.8906 63.7619C56.1441 64.7937 57.2847 65.5159 58.5521 65.3095C59.8194 65.1032 60.7066 64.1746 60.4531 63.1429C60.1996 62.1111 59.059 61.3889 57.7917 61.5952C56.651 61.8016 55.7639 62.7302 55.8906 63.7619Z" fill="#F5F5F5"/>
<path opacity="0.16" d="M55.0035 39.9286L44.2309 74.2857L43.3438 74.0794L52.7222 43.6428L21.4184 77.2778L41.0625 75.627L41.1892 76.4524L19.1372 78.3095L55.0035 39.9286Z" fill="#F5F5F5"/>
<path opacity="0.53" d="M40.6823 74.1825C41.9497 74.0794 43.0903 74.8016 43.217 75.8333C43.3438 76.8651 42.4566 77.7936 41.1893 77.8968C39.9219 78 38.7813 77.2778 38.6546 76.246C38.5279 75.2143 39.415 74.2857 40.6823 74.1825Z" fill="#F5F5F5"/>
<path opacity="0.28" d="M41.5694 73.6667C41.3159 74.6984 41.9496 75.7301 43.217 75.9365C44.4843 76.1428 45.7517 75.627 46.0052 74.5952C46.2586 73.5635 45.625 72.5317 44.3576 72.3254C43.217 72.0158 41.9496 72.6349 41.5694 73.6667Z" fill="#F5F5F5"/>
<path opacity="0.39" d="M55.3837 40.8571L22.0521 76.6588L21.1649 76.1429L52.342 42.7143L-9.88541 63.0397L18.6302 76.5556L18.1232 77.2778L-12.1667 62.8333L55.3837 40.8571Z" fill="#F5F5F5"/>
<path opacity="0.41" d="M19.3906 75.2143C20.5312 75.7301 20.9114 76.8651 20.2777 77.7936C19.6441 78.7222 18.25 79.0317 17.1094 78.5159C15.9688 78 15.5885 76.8651 16.2222 75.9365C16.9826 75.0079 18.3767 74.6984 19.3906 75.2143Z" fill="#F5F5F5"/>
<path opacity="0.69" d="M19.7709 75.2143C19.0104 76.0397 19.1372 77.1746 20.151 77.7936C21.1649 78.4127 22.559 78.3095 23.3194 77.4841C24.0799 76.6587 23.9531 75.5238 22.9393 74.9047C22.0521 74.1825 20.5313 74.3889 19.7709 75.2143Z" fill="#F5F5F5"/>
<path opacity="0.63" d="M-29.4028 16.9206L52.4687 41.7857L-10.7726 62.4206L-29.4028 24.246L-29.4028 26.5159L-11.2795 63.4524L55.2569 41.7857L-29.4028 16.0952L-29.4028 16.9206Z" fill="#F5F5F5"/>
<path opacity="0.48" d="M247.896 112.563L336.484 118.444L324.951 127.627L323.937 126.802L333.316 119.373L255.88 114.214L319.502 127.833L319.248 128.865L247.642 113.698L247.896 112.563Z" fill="#F5F5F5"/>
<path opacity="0.03" d="M320.009 125.77C321.656 126.183 322.797 127.524 322.29 128.968C321.783 130.31 320.135 131.238 318.361 130.825C316.714 130.413 315.573 129.071 316.08 127.627C316.587 126.286 318.361 125.46 320.009 125.77Z" fill="#F5F5F5"/>
<path opacity="0.32" d="M322.29 125.254C321.023 126.286 321.023 127.937 322.29 128.968C323.557 130 325.585 130 326.852 128.968C328.12 127.937 328.12 126.286 326.852 125.254C325.585 124.325 323.557 124.325 322.29 125.254Z" fill="#F5F5F5"/>
<path opacity="0.38" d="M25.6007 97.8095L26.9947 97.9127L185.795 104.31L185.668 105.444L28.3888 99.1508L115.837 202.119L186.556 106.786L187.823 107.405L115.963 204.183L115.33 203.46L25.6007 97.8095Z" fill="#F5F5F5"/>
<path opacity="0.02" d="M185.795 102.246C187.569 102.349 188.964 103.587 188.837 104.929C188.71 106.373 187.189 107.508 185.542 107.405C183.767 107.302 182.373 106.063 182.5 104.722C182.5 103.278 184.021 102.143 185.795 102.246Z" fill="#F5F5F5"/>
<path opacity="0.42" d="M189.851 108.54C190.738 107.302 190.231 105.754 188.71 104.929C187.189 104.206 185.288 104.619 184.274 105.857C183.387 107.095 183.894 108.643 185.415 109.468C186.936 110.19 188.963 109.778 189.851 108.54Z" fill="#F5F5F5"/>
<path opacity="0.31" d="M27.1215 101.008L28.2622 100.698L29.2761 100.183L117.231 203.873L62.3542 200.778L27.1215 101.008ZM114.443 202.532L28.8958 101.73L63.4948 199.643L114.443 202.532Z" fill="#F5F5F5"/>
<path opacity="0.28" d="M24.8403 101.73C24.3334 100.389 25.3472 98.9444 26.9948 98.5317C28.6424 98.119 30.4167 98.9444 30.9236 100.286C31.4306 101.627 30.4167 103.071 28.7691 103.484C27.1216 103.897 25.3473 103.071 24.8403 101.73Z" fill="#F5F5F5"/>
<path opacity="0.24" d="M31.4305 99.1508C30.4166 98.0159 28.3889 97.7064 26.9948 98.5318C25.6007 99.3572 25.2205 101.008 26.2344 102.143C27.2483 103.278 29.2761 103.587 30.6701 102.762C32.0642 101.937 32.4444 100.286 31.4305 99.1508Z" fill="#F5F5F5"/>
<path opacity="0.33" d="M-29.4028 365.857L0.506885 374.73L-20.1511 409.81L-18.8837 410.325L2.53467 374.111L-29.4028 364.722L-29.4028 365.857Z" fill="#F5F5F5"/>
<path opacity="0.4" d="M277.299 -25.1746L395.924 10.4206L395.924 9.18255L281.354 -25.1746L277.299 -25.1746Z" fill="#F5F5F5"/>
<path opacity="0.29" d="M277.299 -25.1746L395.924 10.4206L395.924 9.18255L281.354 -25.1746L277.299 -25.1746Z" fill="#F5F5F5"/>
<path opacity="0.29" d="M262.851 -25.1746L261.33 -25.1746L334.71 119.992L395.924 65.5159L395.924 63.7619L335.09 117.929L262.851 -25.1746Z" fill="#F5F5F5"/>
<path opacity="0.36" d="M372.351 116.381L336.611 118.238L395.924 65.5159L395.924 63.7619L333.189 119.579L372.351 117.516L372.351 116.381Z" fill="#F5F5F5"/>
<path opacity="0.5" d="M189.09 103.484L212.536 193.865L211.142 194.071L188.457 106.579L117.231 202.532L209.368 196.032L209.495 197.167L114.569 203.873L189.09 103.484Z" fill="#F5F5F5"/>
<path opacity="0.65" d="M214.944 193.349C215.325 194.794 214.184 196.135 212.536 196.444C210.762 196.754 209.115 195.825 208.734 194.484C208.354 193.04 209.495 191.698 211.142 191.389C212.917 191.079 214.564 191.905 214.944 193.349Z" fill="#F5F5F5"/>
<path opacity="0.13" d="M209.495 199.23C211.269 199.127 212.536 197.889 212.41 196.444C212.283 195 210.762 193.968 208.988 194.071C207.214 194.175 205.946 195.413 206.073 196.857C206.2 198.302 207.72 199.333 209.495 199.23Z" fill="#F5F5F5"/>
<path opacity="0.26" d="M110.387 202.944L214.311 195.722L193.146 212.643L192.132 211.817L210.509 197.167L121.286 203.357L187.569 212.952L187.316 214.087L110.387 202.944Z" fill="#F5F5F5"/>
<path opacity="0.6" d="M187.823 210.992C189.597 211.198 190.738 212.643 190.358 213.984C190.104 215.429 188.33 216.357 186.682 216.048C184.908 215.841 183.767 214.397 184.148 213.056C184.401 211.611 186.049 210.683 187.823 210.992Z" fill="#F5F5F5"/>
<path opacity="0.67" d="M190.484 210.27C189.217 211.302 189.217 212.952 190.484 213.984C191.752 215.016 193.779 215.016 195.047 213.984C196.314 212.952 196.314 211.302 195.047 210.27C193.779 209.341 191.752 209.238 190.484 210.27Z" fill="#F5F5F5"/>
<path opacity="0.34" d="M-29.4028 314.992L95.4323 337.381L95.6857 336.246L-29.4028 313.857L-29.4028 314.992Z" fill="#F5F5F5"/>
<path opacity="0.34" d="M-29.4028 291.056L62.6076 201.397L97.2066 335.008L98.6007 334.802L63.3681 198.921L-29.4028 289.198L-29.4028 291.056Z" fill="#F5F5F5"/>
<path opacity="0.46" d="M96.066 334.182C97.8403 334.492 98.8542 335.833 98.4739 337.278C98.0937 338.722 96.4462 339.548 94.6719 339.238C92.8976 338.929 91.8837 337.587 92.2639 336.143C92.6441 334.802 94.2917 333.873 96.066 334.182Z" fill="#F5F5F5"/>
<path opacity="0.2" d="M94.6719 335.317C95.0521 336.762 96.6997 337.587 98.474 337.278C100.248 336.968 101.262 335.627 100.882 334.183C100.502 332.738 98.8542 331.913 97.0799 332.222C95.4323 332.532 94.2917 333.873 94.6719 335.317Z" fill="#F5F5F5"/>
<path opacity="0.61" d="M-29.4028 196.754L61.5937 200.675L-29.4028 289.198L-29.4028 291.056L63.4947 200.571L64.3819 199.643L-29.4028 195.619L-29.4028 196.754Z" fill="#F5F5F5"/>
<path opacity="0.02" d="M-29.4028 335.421L-29.4028 337.587L-0.760431 372.667L0.380186 372.048L-29.4028 335.421Z" fill="#F5F5F5"/>
<path opacity="0.02" d="M-29.4028 314.992L96.3195 337.484L3.92883 372.873L4.56251 373.905L100.628 337.071L-29.4028 313.857L-29.4028 314.992Z" fill="#F5F5F5"/>
<path opacity="0.1" d="M2.408 370.81C3.42189 372.048 3.04171 373.595 1.52087 374.421C3.55246e-05 375.246 -1.90101 374.937 -2.9149 373.698C-3.92879 372.46 -3.5486 370.913 -2.02777 370.087C-0.506933 369.365 1.39411 369.675 2.408 370.81Z" fill="#F5F5F5"/>
<path opacity="0.19" d="M3.04164 371.016C1.39407 371.635 0.760414 373.183 1.52083 374.524C2.28125 375.865 4.18228 376.381 5.82985 375.762C7.47742 375.143 8.11108 373.595 7.35066 372.357C6.46351 370.913 4.56247 370.397 3.04164 371.016Z" fill="#F5F5F5"/>
<path opacity="0.43" d="M-29.4028 337.587L-0.760431 372.667L0.380186 372.048L-29.4028 335.421L-29.4028 337.587Z" fill="#F5F5F5"/>
<path opacity="0.35" d="M-0.380225 371.119C1.26734 371.635 2.1545 373.079 1.52082 374.421C0.887136 375.762 -0.887185 376.484 -2.53475 375.968C-4.18232 375.452 -5.06947 374.008 -4.43579 372.667C-3.92885 371.325 -2.02779 370.603 -0.380225 371.119Z" fill="#F5F5F5"/>
<path opacity="0.52" d="M-2.9149 373.698C-1.90101 374.936 3.55214e-05 375.246 1.52087 374.421C3.04171 373.595 3.42189 372.048 2.408 370.809C1.39411 369.571 -0.506933 369.262 -2.02777 370.087C-3.5486 370.913 -3.92879 372.563 -2.9149 373.698Z" fill="#F5F5F5"/>
<path opacity="0.3" d="M187.823 104.103L229.899 117.722L213.677 194.175L212.41 193.968L211.142 194.175L187.823 104.103ZM228.252 118.341L189.724 105.857L212.41 193.349L228.252 118.341Z" fill="#F5F5F5"/>
<path opacity="0.28" d="M216.085 194.278C215.832 195.722 214.184 196.651 212.41 196.444C210.635 196.238 209.495 194.897 209.748 193.452C210.002 192.008 211.649 191.079 213.424 191.286C215.325 191.492 216.465 192.936 216.085 194.278Z" fill="#F5F5F5"/>
<path opacity="0.68" d="M208.608 194.381C208.988 195.825 210.635 196.651 212.41 196.341C214.184 196.032 215.198 194.69 214.818 193.246C214.437 191.802 212.79 190.976 211.016 191.286C209.368 191.595 208.354 193.04 208.608 194.381Z" fill="#F5F5F5"/>
<path opacity="0.03" d="M113.302 199.746L156.646 241.429L148.154 257.111L146.76 256.698L154.998 241.635L118.498 206.556L145.62 256.698L144.352 257.111L113.302 199.746Z" fill="#F5F5F5"/>
<path opacity="0.14" d="M147.901 255.77C148.661 257.111 147.901 258.659 146.253 259.175C144.606 259.794 142.705 259.175 142.071 257.833C141.311 256.492 142.071 254.944 143.719 254.429C145.24 253.81 147.141 254.429 147.901 255.77Z" fill="#F5F5F5"/>
<path opacity="0.63" d="M144.606 255.77C143.845 257.111 144.606 258.659 146.253 259.175C147.901 259.794 149.802 259.175 150.436 257.833C151.196 256.492 150.436 254.944 148.788 254.429C147.141 253.81 145.366 254.429 144.606 255.77Z" fill="#F5F5F5"/>
<path opacity="0.06" d="M60.9601 199.437L116.344 202.635L116.47 202.944L145.62 256.698L144.352 257.111L143.465 257.937L60.9601 199.437ZM115.33 203.667L65.0156 200.778L144.226 257.008L115.33 203.667Z" fill="#F5F5F5"/>
<path opacity="0.63" d="M147.901 255.77C148.661 257.111 147.901 258.659 146.253 259.175C144.606 259.794 142.705 259.175 142.071 257.833C141.311 256.492 142.071 254.944 143.719 254.429C145.24 253.81 147.141 254.429 147.901 255.77Z" fill="#F5F5F5"/>
<path opacity="0.24" d="M141.691 259.381C142.958 260.31 144.986 260.206 146.253 259.175C147.394 258.143 147.267 256.492 146 255.46C144.733 254.532 142.705 254.635 141.438 255.667C140.297 256.802 140.424 258.452 141.691 259.381Z" fill="#F5F5F5"/>
<path opacity="0.13" d="M61.8472 198.611L144.352 257.111L143.465 258.04L64.1285 201.706L98.7274 335.524L144.226 261.135L145.493 261.651L98.2205 339.032L61.8472 198.611Z" fill="#F5F5F5"/>
<path opacity="0.44" d="M145.873 255.564C147.141 256.492 147.394 258.143 146.127 259.278C144.986 260.31 142.958 260.516 141.564 259.484C140.297 258.556 140.043 256.905 141.311 255.77C142.578 254.635 144.606 254.532 145.873 255.564Z" fill="#F5F5F5"/>
<path opacity="0.17" d="M147.648 262.683C148.408 261.444 147.774 259.794 146.253 259.175C144.733 258.556 142.705 259.071 141.944 260.31C141.184 261.548 141.818 263.198 143.339 263.817C144.986 264.437 146.887 263.921 147.648 262.683Z" fill="#F5F5F5"/>
<path opacity="0.43" d="M112.542 202.119L187.569 212.952L187.316 214.087L119.259 204.183L165.264 228.222L187.569 214.913L188.457 215.841L165.391 229.667L112.542 202.119Z" fill="#F5F5F5"/>
<path opacity="0.47" d="M187.823 210.992C189.597 211.198 190.738 212.643 190.358 213.984C190.104 215.429 188.33 216.357 186.682 216.048C184.908 215.841 183.767 214.397 184.148 213.056C184.401 211.611 186.049 210.683 187.823 210.992Z" fill="#F5F5F5"/>
<path opacity="0.05" d="M189.724 217.595C191.118 216.77 191.498 215.119 190.358 213.984C189.344 212.849 187.316 212.54 185.922 213.468C184.528 214.294 184.148 215.944 185.288 217.079C186.302 218.214 188.33 218.421 189.724 217.595Z" fill="#F5F5F5"/>
<path opacity="0.06" d="M112.288 200.571L163.109 227.087L162.349 228.119L119.385 205.73L155.759 240.5L163.109 230.698L164.377 231.317L155.885 242.46L112.288 200.571Z" fill="#F5F5F5"/>
<path opacity="0.39" d="M164.377 225.333C165.898 226.056 166.278 227.706 165.391 228.944C164.503 230.183 162.476 230.492 160.955 229.77C159.434 229.048 159.054 227.397 159.941 226.159C160.955 224.921 162.856 224.611 164.377 225.333Z" fill="#F5F5F5"/>
<path opacity="0.69" d="M166.405 232.556C167.292 231.317 166.911 229.77 165.391 228.944C163.87 228.222 161.969 228.532 160.955 229.77C160.068 231.008 160.448 232.556 161.969 233.381C163.49 234.103 165.391 233.69 166.405 232.556Z" fill="#F5F5F5"/>
<path opacity="0.39" d="M-29.4028 107.714L21.9253 99.873L-29.4028 120.198L-29.4028 121.436L32.0642 97.0873L-29.4028 106.579L-29.4028 107.714Z" fill="#F5F5F5"/>
<path opacity="0.49" d="M-29.4028 158.683L59.9461 199.437L-29.4028 195.619L-29.4028 196.754L66.0295 200.881L-29.4028 157.341L-29.4028 158.683Z" fill="#F5F5F5"/>
<path opacity="0.24" d="M333.316 118.444L372.351 116.381L372.351 117.516L336.484 119.476L350.299 131.032L372.477 117.825L373.365 118.651L350.172 132.476L333.316 118.444Z" fill="#F5F5F5"/>
<path opacity="0.12" d="M334.837 118.135L348.651 129.587L347.637 130.413L334.837 119.786L323.811 128.556L347.384 130.929L347.13 132.064L320.769 129.381L334.837 118.135Z" fill="#F5F5F5"/>
<path opacity="0.58" d="M350.299 128.04C351.566 129.071 351.566 130.722 350.299 131.754C349.031 132.786 347.003 132.786 345.736 131.754C344.469 130.722 344.469 129.071 345.736 128.04C347.13 127.008 349.031 127.111 350.299 128.04Z" fill="#F5F5F5"/>
<path opacity="0.32" d="M346.75 134.024C348.524 134.23 350.045 133.198 350.299 131.754C350.552 130.31 349.285 129.071 347.51 128.865C345.736 128.659 344.215 129.69 343.962 131.135C343.708 132.579 344.976 133.817 346.75 134.024Z" fill="#F5F5F5"/>
<path opacity="0.48" d="M261.33 -25.1746L332.429 115.556L219.127 1.44445L252.458 -25.1746L250.431 -25.1746L217.226 1.34128L337.372 122.365L262.851 -25.1746L261.33 -25.1746Z" fill="#F5F5F5"/>
<path opacity="0.28" d="M216.845 -0.928563L333.569 116.69L332.429 117.413L219.507 3.61112L248.403 112.564L331.922 118.135L331.795 119.373L247.262 113.698L247.135 113.183L216.845 -0.928563Z" fill="#F5F5F5"/>
<path opacity="0.25" d="M331.922 116.175C333.696 116.278 334.964 117.516 334.837 118.96C334.71 120.405 333.189 121.437 331.415 121.333C329.641 121.23 328.373 119.992 328.5 118.548C328.627 117.103 330.148 116.071 331.922 116.175Z" fill="#F5F5F5"/>
<path opacity="0.57" d="M330.401 118.548C331.542 119.683 333.569 119.889 334.837 118.96C336.231 118.032 336.484 116.381 335.344 115.349C334.203 114.214 332.175 114.008 330.908 114.937C329.514 115.762 329.26 117.413 330.401 118.548Z" fill="#F5F5F5"/>
<path opacity="0.03" d="M321.91 128.349L347.384 130.929L347.13 132.064L322.797 129.587L311.01 152.698L347.384 132.683L348.144 133.611L307.969 155.794L321.91 128.349Z" fill="#F5F5F5"/>
<path opacity="0.28" d="M347.51 128.865C349.285 129.071 350.552 130.31 350.299 131.754C350.045 133.198 348.524 134.23 346.75 134.024C344.976 133.817 343.708 132.579 343.962 131.135C344.215 129.69 345.736 128.659 347.51 128.865Z" fill="#F5F5F5"/>
<path opacity="0.07" d="M349.411 135.365C350.932 134.54 351.312 132.992 350.299 131.754C349.285 130.516 347.384 130.206 345.863 131.032C344.342 131.857 343.962 133.405 344.976 134.643C345.99 135.881 348.017 136.191 349.411 135.365Z" fill="#F5F5F5"/>
<path opacity="0.3" d="M244.854 111.841L323.304 128.556L311.264 152.183L309.996 151.667L321.276 129.381L250.811 114.317L307.589 152.183L306.701 153.111L244.854 111.841Z" fill="#F5F5F5"/>
<path opacity="0.6" d="M313.672 152.802C313.038 154.143 311.137 154.762 309.49 154.246C307.842 153.73 307.082 152.183 307.715 150.841C308.349 149.5 310.25 148.881 311.898 149.397C313.545 149.913 314.306 151.46 313.672 152.802Z" fill="#F5F5F5"/>
<path opacity="0.01" d="M305.054 154.556C306.448 155.484 308.476 155.278 309.49 154.143C310.63 153.008 310.377 151.357 308.983 150.532C307.589 149.603 305.561 149.81 304.547 150.944C303.406 151.976 303.66 153.627 305.054 154.556Z" fill="#F5F5F5"/>
<path opacity="0.48" d="M227.238 117.825L247.896 112.46L248.149 112.667L307.462 152.183L306.828 152.802L306.321 153.524L227.238 117.825ZM247.642 113.802L230.786 118.238L303.026 150.738L247.642 113.802Z" fill="#F5F5F5"/>
<path opacity="0.1" d="M309.109 150.532C310.503 151.46 310.63 153.111 309.616 154.143C308.476 155.278 306.448 155.381 305.181 154.556C303.786 153.627 303.66 151.976 304.674 150.944C305.687 149.81 307.715 149.603 309.109 150.532Z" fill="#F5F5F5"/>
<path opacity="0.22" d="M305.181 155.175C306.701 155.897 308.602 155.381 309.49 154.143C310.377 152.905 309.743 151.357 308.222 150.635C306.701 149.913 304.8 150.429 303.913 151.667C303.026 152.905 303.66 154.556 305.181 155.175Z" fill="#F5F5F5"/>
<path opacity="0.04" d="M228.505 117.103L307.208 152.492L306.448 153.524L229.646 118.857L213.424 195.31L306.448 154.865L307.208 155.897L211.523 197.476L228.505 117.103Z" fill="#F5F5F5"/>
<path opacity="0.24" d="M308.222 150.635C309.743 151.357 310.377 152.905 309.49 154.143C308.602 155.381 306.701 155.897 305.181 155.175C303.66 154.452 303.026 152.905 303.913 151.667C304.8 150.429 306.701 150.016 308.222 150.635Z" fill="#F5F5F5"/>
<path opacity="0.08" d="M308.222 157.754C309.743 157.032 310.377 155.484 309.49 154.246C308.602 153.008 306.701 152.492 305.181 153.214C303.66 153.937 303.026 155.484 303.913 156.722C304.674 157.96 306.701 158.373 308.222 157.754Z" fill="#F5F5F5"/>
<path opacity="0.7" d="M101.642 39.1032L143.719 20.0159L152.844 70.3651L101.516 42.7143L102.276 41.6825L150.943 67.9921L142.705 21.873L102.403 40.1349L101.642 39.1032Z" fill="#F5F5F5"/>
<path opacity="0.26" d="M100.248 44.4683C98.7274 43.6429 98.3472 42.0952 99.3611 40.8571C100.375 39.619 102.276 39.3095 103.797 40.1349C105.318 40.9603 105.698 42.5079 104.684 43.746C103.67 44.881 101.769 45.1905 100.248 44.4683Z" fill="#F5F5F5"/>
<path opacity="0.53" d="M100.628 37.3492C99.1076 38.0714 98.4739 39.619 99.3611 40.8571C100.248 42.0952 102.149 42.6111 103.67 41.8889C105.191 41.1667 105.825 39.619 104.938 38.381C104.05 37.0397 102.149 36.627 100.628 37.3492Z" fill="#F5F5F5"/>
<path opacity="0.62" d="M22.6858 98.8413L152.21 68.5079L152.464 68.8175L187.316 102.762L186.302 103.484L151.703 69.8492L31.3039 98.119L185.795 104.31L185.668 105.444L22.6858 98.8413Z" fill="#F5F5F5"/>
<path opacity="0.26" d="M185.795 102.246C187.569 102.349 188.964 103.587 188.837 104.929C188.71 106.373 187.189 107.508 185.542 107.405C183.767 107.302 182.373 106.063 182.5 104.722C182.5 103.278 184.021 102.143 185.795 102.246Z" fill="#F5F5F5"/>
<path opacity="0.49" d="M184.274 104.619C185.415 105.754 187.443 105.857 188.71 104.929C190.104 104 190.231 102.349 189.09 101.317C187.95 100.183 185.922 100.079 184.654 101.008C183.26 101.937 183.134 103.587 184.274 104.619Z" fill="#F5F5F5"/>
<path opacity="0.68" d="M35.6129 76.3492L99.3611 40.1349L99.7413 40.3413L153.984 69.6429L36.6267 78.619L36.5 77.4841L149.802 68.7143L99.3611 41.5794L36.3733 77.2778L35.6129 76.3492Z" fill="#F5F5F5"/>
<path opacity="0.15" d="M37.007 80.5793C35.2327 80.6825 33.7118 79.6508 33.5851 78.2063C33.4583 76.7619 34.7257 75.5238 36.5 75.4206C38.2743 75.3174 39.7951 76.3492 39.9219 77.7936C40.0486 79.2381 38.7813 80.4762 37.007 80.5793Z" fill="#F5F5F5"/>
<path opacity="0.62" d="M34.3455 74.5952C32.9514 75.4206 32.5712 77.0714 33.5851 78.2064C34.5989 79.3413 36.6267 79.6508 38.0208 78.8254C39.4149 78 39.7951 76.3492 38.7812 75.2143C37.7674 74.0794 35.7396 73.7698 34.3455 74.5952Z" fill="#F5F5F5"/>
<path opacity="0.22" d="M32.0642 80.4762L33.4583 80.7857L28.0087 97.6032L144.479 70.3651L36.6267 78.619L36.5 77.4841L151.83 68.6111L152.083 69.746L25.9809 99.3571L32.0642 80.4762Z" fill="#F5F5F5"/>
<path opacity="0.28" d="M29.6563 80.0635C30.1632 78.7222 31.8108 77.7936 33.5851 78.2063C35.2327 78.619 36.3733 79.9603 35.8663 81.4048C35.3594 82.746 33.7119 83.6746 31.9376 83.2619C30.1632 82.9524 29.1493 81.5079 29.6563 80.0635Z" fill="#F5F5F5"/>
<path opacity="0.67" d="M36.3733 75.4206C34.599 75.5238 33.3316 76.8651 33.4584 78.2063C33.5851 79.6508 35.2327 80.6825 36.8803 80.5793C38.6546 80.4762 39.9219 79.1349 39.7952 77.7936C39.6684 76.3492 38.1476 75.3174 36.3733 75.4206Z" fill="#F5F5F5"/>
<path opacity="0.31" d="M145.873 19.6032L219.38 0.412689L186.302 73.254L144.352 23.3174L145.493 22.6984L185.922 70.7778L216.972 2.26983L146.253 20.7381L145.873 19.6032Z" fill="#F5F5F5"/>
<path opacity="0.23" d="M142.325 24.5556C141.311 23.4207 141.691 21.7699 143.212 20.9445C144.606 20.1191 146.634 20.4286 147.648 21.6667C148.661 22.8016 148.281 24.4524 146.76 25.2778C145.366 26.1032 143.339 25.7937 142.325 24.5556Z" fill="#F5F5F5"/>
<path opacity="0.13" d="M145.24 17.6429C143.592 18.0556 142.578 19.5 143.212 20.9445C143.719 22.2857 145.493 23.1111 147.267 22.5953C148.915 22.1826 149.929 20.7381 149.295 19.2937C148.788 17.9524 147.014 17.2302 145.24 17.6429Z" fill="#F5F5F5"/>
<path opacity="0.68" d="M215.705 4.43652C215.325 2.99208 216.465 1.65081 218.113 1.34128C219.887 1.03176 221.535 1.96033 221.915 3.3016C222.295 4.74605 221.154 6.08732 219.507 6.39684C217.859 6.70636 216.085 5.88097 215.705 4.43652Z" fill="#F5F5F5"/>
<path opacity="0.48" d="M220.014 4.64287C220.648 3.3016 219.76 1.75398 218.113 1.34128C216.465 0.825405 214.564 1.54763 214.057 2.8889C213.424 4.23017 214.311 5.77779 215.958 6.19048C217.606 6.70636 219.507 5.98414 220.014 4.64287Z" fill="#F5F5F5"/>
<path opacity="0.13" d="M142.958 23.5238L144.352 23.3175L145.493 22.6984L187.569 72.7381L151.323 69.746L151.196 69.3333L142.958 23.5238ZM184.654 71.2937L144.352 23.3175L152.464 68.6111L184.654 71.2937Z" fill="#F5F5F5"/>
<path opacity="0.67" d="M140.55 23.9365C140.297 22.4921 141.564 21.1508 143.212 20.9444C144.986 20.7381 146.634 21.7698 146.887 23.1111C147.141 24.5556 146 25.8968 144.226 26.1032C142.451 26.3095 140.804 25.2778 140.55 23.9365Z" fill="#F5F5F5"/>
<path opacity="0.14" d="M147.648 21.6667C146.634 20.5318 144.606 20.2222 143.212 20.9445C141.818 21.7698 141.437 23.4206 142.325 24.5556C143.338 25.6905 145.366 26 146.76 25.2778C148.281 24.4524 148.661 22.8016 147.648 21.6667Z" fill="#F5F5F5"/>
<path opacity="0.49" d="M181.866 68.5079L245.868 111.119L244.981 111.944L190.231 75.5238L229.266 117.31L244.727 113.286L245.108 114.421L228.759 118.651L181.866 68.5079Z" fill="#F5F5F5"/>
<path opacity="0.52" d="M243.84 111.429C245.488 111.016 247.262 111.738 247.896 113.079C248.403 114.421 247.516 115.865 245.868 116.381C244.22 116.794 242.446 116.071 241.812 114.73C241.179 113.286 242.066 111.841 243.84 111.429Z" fill="#F5F5F5"/>
<path opacity="0.48" d="M243.333 113.492C244.727 114.421 246.755 114.214 247.769 113.079C248.91 111.944 248.656 110.294 247.262 109.468C245.868 108.54 243.84 108.746 242.826 109.881C241.812 110.913 241.939 112.563 243.333 113.492Z" fill="#F5F5F5"/>
<path opacity="0.22" d="M185.288 70.1587L227.745 115.659L226.604 116.381L186.936 73.873L189.47 104.619L226.477 116.587L225.97 117.619L188.076 105.341L188.076 105.032L185.288 70.1587Z" fill="#F5F5F5"/>
<path opacity="0.24" d="M227.238 114.627C228.885 115.143 229.646 116.69 229.012 118.032C228.378 119.373 226.477 119.992 224.83 119.476C223.182 118.96 222.422 117.413 223.056 116.071C223.816 114.73 225.59 114.111 227.238 114.627Z" fill="#F5F5F5"/>
<path opacity="0.29" d="M224.576 117.516C225.59 118.651 227.618 118.857 229.012 118.032C230.406 117.206 230.66 115.556 229.646 114.421C228.632 113.286 226.604 113.079 225.21 113.905C223.816 114.73 223.562 116.381 224.576 117.516Z" fill="#F5F5F5"/>
<path opacity="0.55" d="M154.998 68.8175L186.809 71.5L189.597 106.683L153.351 71.3968L154.365 70.6746L187.95 103.278L185.415 72.5318L154.872 69.9524L154.998 68.8175Z" fill="#F5F5F5"/>
<path opacity="0.11" d="M151.45 72.8413C150.309 71.7064 150.436 70.0556 151.83 69.2302C153.224 68.3016 155.252 68.4048 156.266 69.5397C157.406 70.6746 157.28 72.3254 155.885 73.1508C154.618 74.0794 152.59 73.9762 151.45 72.8413Z" fill="#F5F5F5"/>
<path opacity="0.45" d="M155.378 66.8572C153.604 66.754 152.083 67.7857 151.83 69.127C151.703 70.5714 152.97 71.8095 154.618 72.0159C156.392 72.1191 157.913 71.0873 158.167 69.746C158.42 68.3016 157.153 66.9603 155.378 66.8572Z" fill="#F5F5F5"/>
</g>
<defs>
<clipPath id="clip0">
<rect width="520" height="365" fill="white" transform="translate(365) rotate(90)"/>
</clipPath>
</defs>
</svg>
