<svg width="123px" height="22px" viewBox="0 0 123 22" fill="none" xmlns="http://www.w3.org/2000/svg">
<path d="M11.9971 0.994141L20.0977 22H17.0947L15.2344 17.166H5.75684L3.89648 22H0.893555L8.99414 0.994141H11.9971ZM6.89941 14.1631H14.0771L10.5029 4.90527L6.89941 14.1631ZM32.8271 19.1143V15.4961H25.9863C25.5859 15.4961 25.21 15.4229 24.8584 15.2764C24.5068 15.1201 24.1992 14.915 23.9355 14.6611C23.6816 14.3975 23.4766 14.0898 23.3203 13.7383C23.1738 13.3867 23.1006 13.0107 23.1006 12.6104V9.28516C23.1006 8.88477 23.1738 8.50879 23.3203 8.15723C23.4766 7.80566 23.6816 7.50293 23.9355 7.24902C24.1992 6.98535 24.5068 6.78027 24.8584 6.63379C25.21 6.47754 25.5859 6.39941 25.9863 6.39941H35.1123V9.28516H25.9863V12.6104H32.8271C33.2275 12.6104 33.5986 12.6885 33.9404 12.8447C34.292 12.9912 34.5996 13.1963 34.8633 13.46C35.127 13.7139 35.332 14.0166 35.4785 14.3682C35.6348 14.7197 35.7129 15.0957 35.7129 15.4961V19.1143C35.7129 19.5146 35.6348 19.8906 35.4785 20.2422C35.332 20.5938 35.127 20.9014 34.8633 21.165C34.5996 21.4189 34.292 21.624 33.9404 21.7803C33.5986 21.9268 33.2275 22 32.8271 22H23.1006V19.1143H32.8271ZM49.6436 19.1143V15.4961H42.8027C42.4023 15.4961 42.0264 15.4229 41.6748 15.2764C41.3232 15.1201 41.0156 14.915 40.752 14.6611C40.498 14.3975 40.293 14.0898 40.1367 13.7383C39.9902 13.3867 39.917 13.0107 39.917 12.6104V9.28516C39.917 8.88477 39.9902 8.50879 40.1367 8.15723C40.293 7.80566 40.498 7.50293 40.752 7.24902C41.0156 6.98535 41.3232 6.78027 41.6748 6.63379C42.0264 6.47754 42.4023 6.39941 42.8027 6.39941H51.9287V9.28516H42.8027V12.6104H49.6436C50.0439 12.6104 50.415 12.6885 50.7568 12.8447C51.1084 12.9912 51.416 13.1963 51.6797 13.46C51.9434 13.7139 52.1484 14.0166 52.2949 14.3682C52.4512 14.7197 52.5293 15.0957 52.5293 15.4961V19.1143C52.5293 19.5146 52.4512 19.8906 52.2949 20.2422C52.1484 20.5938 51.9434 20.9014 51.6797 21.165C51.416 21.4189 51.1084 21.624 50.7568 21.7803C50.415 21.9268 50.0439 22 49.6436 22H39.917V19.1143H49.6436ZM70.2393 15.6719H59.9121V19.1143H70.2393V22H59.9121C59.5215 22 59.1504 21.9268 58.7988 21.7803C58.4473 21.624 58.1396 21.4189 57.876 21.165C57.6221 20.9014 57.417 20.5938 57.2607 20.2422C57.1143 19.8906 57.041 19.5146 57.041 19.1143V9.28516C57.041 8.88477 57.1143 8.50879 57.2607 8.15723C57.417 7.80566 57.6221 7.50293 57.876 7.24902C58.1396 6.98535 58.4473 6.78027 58.7988 6.63379C59.1504 6.47754 59.5215 6.39941 59.9121 6.39941H67.3535C67.7539 6.39941 68.1299 6.47754 68.4814 6.63379C68.833 6.78027 69.1357 6.98535 69.3896 7.24902C69.6533 7.50293 69.8584 7.80566 70.0049 8.15723C70.1611 8.50879 70.2393 8.88477 70.2393 9.28516V15.6719ZM59.9121 9.28516V12.7861H67.3535V9.28516H59.9121ZM74.1504 6.39941H77.959V1.59473H80.8447V6.39941H85.9717V9.28516H80.8447V19.1143H85.9717V22H80.8447C80.4541 22 80.083 21.9268 79.7314 21.7803C79.3799 21.624 79.0723 21.4189 78.8086 21.165C78.5449 20.9014 78.335 20.5938 78.1787 20.2422C78.0322 19.8906 77.959 19.5146 77.959 19.1143V9.28516H74.1504V6.39941ZM104.282 19.1143C104.282 19.5146 104.204 19.8906 104.048 20.2422C103.901 20.5938 103.696 20.9014 103.433 21.165C103.179 21.4189 102.876 21.624 102.524 21.7803C102.183 21.9268 101.812 22 101.411 22H93.6621C93.2715 22 92.9004 21.9268 92.5488 21.7803C92.1973 21.624 91.8896 21.4189 91.626 21.165C91.3721 20.9014 91.167 20.5938 91.0107 20.2422C90.8643 19.8906 90.791 19.5146 90.791 19.1143V9.28516C90.791 8.88477 90.8643 8.50879 91.0107 8.15723C91.167 7.80566 91.3721 7.50293 91.626 7.24902C91.8896 6.98535 92.1973 6.78027 92.5488 6.63379C92.9004 6.47754 93.2715 6.39941 93.6621 6.39941H101.411C101.812 6.39941 102.183 6.47754 102.524 6.63379C102.876 6.78027 103.179 6.98535 103.433 7.24902C103.696 7.50293 103.901 7.80566 104.048 8.15723C104.204 8.50879 104.282 8.88477 104.282 9.28516V19.1143ZM93.6621 9.28516V19.1143H101.411V9.28516H93.6621ZM113.54 22L107.3 6.39941H110.303L115.034 18.543L119.78 6.39941H122.783L116.543 22H113.54Z" fill="black"/>
</svg>
